<svg xmlns="http://www.w3.org/2000/svg" viewBox="0 0 481.24 75.48"><defs><style>.cls-1{fill:#fff;}.cls-2{fill:#ff9100;}</style></defs><g id="Layer_2" data-name="Layer 2"><g id="Layer_1-2" data-name="Layer 1"><path class="cls-1" d="M105.54.17h.59a20.91,20.91,0,0,1,14.7,6.12,19.25,19.25,0,0,1,3.74,4.93,20.66,20.66,0,0,1,2.66,10.15V38.53A19.8,19.8,0,0,1,124,49.87a17,17,0,0,1-2.86,3.06,6.52,6.52,0,0,1-1.08.79,19.73,19.73,0,0,1,5.42,7.49,20.61,20.61,0,0,1,1.77,7.89V75c0,.07,0,.1-.09.1H116.68c-.06,0-.09,0-.09-.1V70.88q0-7-4.64-10a12.29,12.29,0,0,0-4.34-1.78,2.07,2.07,0,0,0-.79-.19Q101.21,60.53,99,62.1a8.16,8.16,0,0,0-3.45,4.64,13.13,13.13,0,0,0-.39,3.64V75a.09.09,0,0,1-.1.1H84.54c-.07,0-.1,0-.1-.1V19.9a5.45,5.45,0,0,0,.29-1.29,21.09,21.09,0,0,1,2.67-8,21.39,21.39,0,0,1,10.74-9A20.21,20.21,0,0,1,105.54.17ZM95.19,21.47V51.65a84.35,84.35,0,0,1,10-3.4q6.42-1.83,8.78-4.1a8.26,8.26,0,0,0,2.17-3.55,12.39,12.39,0,0,0,.4-3.64V21.47a10.67,10.67,0,0,0-4.44-8.58,10.39,10.39,0,0,0-6.21-2.07h-.2a10.48,10.48,0,0,0-8.48,4.34A11.12,11.12,0,0,0,95.19,21.47Z"/><path class="cls-1" d="M156.42,75.12h-.59a21.12,21.12,0,0,1-14.4-5.82,22.4,22.4,0,0,1-3.74-4.63,21.15,21.15,0,0,1-3-10.75V21.37a21,21,0,0,1,6.21-14.89A20.94,20.94,0,0,1,155.83.17h.59a21,21,0,0,1,14.6,6A21.34,21.34,0,0,1,177.62,22q0,7.89-4,12.91a17.77,17.77,0,0,1-3.35,2.86,31.47,31.47,0,0,1-7.3,3.46q-3.56,1.08-8.77,2.56a17.93,17.93,0,0,0-5.82,3.06c-2,1.57-3,4-3,7.29a10.3,10.3,0,0,0,2.76,6.71A10.6,10.6,0,0,0,156,64.47h.2A10.47,10.47,0,0,0,164.8,60a10.33,10.33,0,0,0,2.08-6.21c0-.07,0-.1.09-.1h10.56c.06,0,.09,0,.09.1v.1a21,21,0,0,1-6.11,14.79,20.73,20.73,0,0,1-5,3.75A20.24,20.24,0,0,1,156.42,75.12Zm10.46-53.94a10.5,10.5,0,0,0-2.67-6.71,10.69,10.69,0,0,0-8-3.65H156a10.67,10.67,0,0,0-8.58,4.44,10.39,10.39,0,0,0-2.07,6.21v14.2a44,44,0,0,1,6.21-2.26,68.5,68.5,0,0,0,9.76-3.16,12.13,12.13,0,0,0,3.45-2.47A9.62,9.62,0,0,0,166.88,21.18Z"/><path class="cls-1" d="M210.16.17h.6A21.1,21.1,0,0,1,225.15,6a22.53,22.53,0,0,1,3.75,4.64,21.22,21.22,0,0,1,3,10.74v.1c0,.07,0,.1-.1.1H221.31c-.07,0-.1,0-.1-.1a10.67,10.67,0,0,0-4.44-8.58,10.39,10.39,0,0,0-6.21-2.07h-.2a10.71,10.71,0,0,0-10.65,10.46q0,6.11,4.93,8.58,2,1.28,9.17,3.25a42.68,42.68,0,0,1,9.37,3.55,15.85,15.85,0,0,1,7.4,8.68,22.55,22.55,0,0,1,1.28,7.49V54a21.31,21.31,0,0,1-4.64,13.12,22.15,22.15,0,0,1-3.45,3.35,20.9,20.9,0,0,1-13,4.64h-.6a21,21,0,0,1-14.59-6,22.64,22.64,0,0,1-3.45-4.24A20.79,20.79,0,0,1,189,53.92v-.1l.1-.1h10.55c.07,0,.1,0,.1.1a10.65,10.65,0,0,0,10.65,10.65h.2A10.92,10.92,0,0,0,221.21,54q0-5.41-3.85-7.88A18.08,18.08,0,0,0,212.83,44c-1.25-.4-4.28-1.32-9.07-2.76a33.86,33.86,0,0,1-7-3.16,16.13,16.13,0,0,1-6.6-8.48A25.65,25.65,0,0,1,189,22,21.35,21.35,0,0,1,210.16.17Z"/><path class="cls-1" d="M244.28.17h10.55a.09.09,0,0,1,.1.1V17.82h10.65V28.38a.09.09,0,0,1-.1.1H254.93V53.82a10.76,10.76,0,0,0,4.34,8.58,10.39,10.39,0,0,0,6.21,2.07c.07,0,.1,0,.1.1V75c0,.07,0,.1-.1.1h-.19a21.12,21.12,0,0,1-14.4-5.82,28.28,28.28,0,0,1-3.75-4.63,22.84,22.84,0,0,1-3-11.94V.27A.09.09,0,0,1,244.28.17Z"/><path class="cls-1" d="M296,.17h.49a21.65,21.65,0,0,1,16.37,7.89,21.2,21.2,0,0,1,4.73,13.22V34.39a21.41,21.41,0,0,1-4.83,13.41A21.87,21.87,0,0,1,309,51.35a21.54,21.54,0,0,1-12.82,4.24,21.24,21.24,0,0,1-15-6.11,22.42,22.42,0,0,1-3.84-5.13,22.67,22.67,0,0,1-2.57-11.14V22.76a22.76,22.76,0,0,1,2.57-11.34,22.89,22.89,0,0,1,3.45-4.74,19.36,19.36,0,0,1,4.34-3.45A20.83,20.83,0,0,1,296,.17Zm-21.11,64.3h42.6c.07,0,.1,0,.1.1V75c0,.07,0,.1-.1.1h-42.6a.09.09,0,0,1-.1-.1V64.57Zm10.65-43.1V34.29a10.74,10.74,0,0,0,4.24,8.48,10.09,10.09,0,0,0,6,2.17h.69a10.52,10.52,0,0,0,8.08-4,10.85,10.85,0,0,0,2.37-6.61V21.37a10.56,10.56,0,0,0-3.75-8,10.7,10.7,0,0,0-6.9-2.57h-.1q-5.32,0-8.87,4.84A10.69,10.69,0,0,0,285.5,21.37Z"/><path class="cls-2" d="M371.79.27V75a.09.09,0,0,1-.1.1H361.14V53.42A57.84,57.84,0,0,1,354,56q-7.6,2-9.77,3.35-4.42,3.16-4.63,9.37V75a.09.09,0,0,1-.1.1H329.09c-.07,0-.1,0-.1-.1V.27a.09.09,0,0,1,.1-.1h10.45a.09.09,0,0,1,.1.1V49.48a72.45,72.45,0,0,1,11.63-3.85q9.87-3,9.87-10.55V.17h10.55A.09.09,0,0,1,371.79.27Z"/><path class="cls-2" d="M392.69,52.14a20.33,20.33,0,0,1-5.32-5.32q-4.15-5.32-4.15-13.51V.27a.09.09,0,0,1,.1-.1h10.55a.09.09,0,0,1,.1.1V34.49a11.4,11.4,0,0,0,1.78,5.92Q399.4,45,404.52,45h.2a10.58,10.58,0,0,0,6.61-2.37,10.45,10.45,0,0,0,4-8.18V.27a.09.09,0,0,1,.1-.1h10.45a.09.09,0,0,1,.1.1V34.39a21.15,21.15,0,0,1-21.1,21.3h-.59A21.5,21.5,0,0,1,392.69,52.14Zm-9.37,12.33h42.6c.07,0,.1,0,.1.1V75c0,.07,0,.1-.1.1h-42.6a.09.09,0,0,1-.1-.1V64.57Z"/><path class="cls-2" d="M446.63,70.58a19.88,19.88,0,0,1-3.35-3.35,21.94,21.94,0,0,1-4.84-14.5V.27a.09.09,0,0,1,.1-.1h10.55a.09.09,0,0,1,.1.1V4.61a13.59,13.59,0,0,0,.4,4,8.06,8.06,0,0,0,3.55,4.73,18.86,18.86,0,0,0,4.34,2.07l9.46,2.76A29.85,29.85,0,0,1,474.63,22a21.83,21.83,0,0,1,3,2.86,19.49,19.49,0,0,1,3.65,11.93V53.92a21.15,21.15,0,0,1-3,10.75,22.4,22.4,0,0,1-3.74,4.63,21.12,21.12,0,0,1-14.4,5.82h-.49A21.16,21.16,0,0,1,446.63,70.58ZM451.26,60a10.39,10.39,0,0,0,8.48,4.44h.2a10.35,10.35,0,0,0,6.21-2.07,10.67,10.67,0,0,0,4.44-8.58V38.53a11.94,11.94,0,0,0-.79-4.93q-1.38-3.15-5.81-5a26.22,26.22,0,0,0-4.15-1.38,95.06,95.06,0,0,1-10.65-3.55V53.82A10.39,10.39,0,0,0,451.26,60Z"/><path class="cls-2" d="M46,63.27,43,59.83l-6.73-7.52a5.87,5.87,0,0,0-5.49-1.81c-3.34.62-7.5-.85-11.94-5.23-6.59-6.5-11.29-16.92-7.72-20.55s14.07.93,20.65,7.42c4.45,4.39,6,8.53,5.41,11.88A5.88,5.88,0,0,0,39,49.48l7.32,6.37,3.94,3.42,18,16.21h5.08a2.14,2.14,0,0,0,2.14-2.14V20.2A20.2,20.2,0,0,0,55.28,0H17.38L29,12.56l4,4.25,6,6.35A6.25,6.25,0,0,0,42.2,25l5.66,1.16a7.17,7.17,0,0,1,4.07,2.44l14.9,17.87a1,1,0,0,1-.06,1.39l-.34.33C58.31,40,52,33.24,51.66,33.55s5.49,7.63,13.61,15.79l-.91.9C56.23,42.1,49.42,35.79,49.1,36.11s6,7.14,14.09,15.3l-.8.8c-8.15-8.13-15.54-13.86-15.86-13.54s6.56,6.57,14.69,14.72l-.37.37a.74.74,0,0,1-1,0l-18-15.19a7.14,7.14,0,0,1-2.41-4l-1.12-5.5a6.12,6.12,0,0,0-2-3.47l-6.72-5.7-4-3.38L6.75,0H2.14A2.14,2.14,0,0,0,0,2.14V55.28a20.2,20.2,0,0,0,20.2,20.2H57.29Z"/></g></g></svg>