<?xml version="1.0" encoding="UTF-8"?>
<svg id="Layer_2" data-name="Layer 2" xmlns="http://www.w3.org/2000/svg" viewBox="0 0 75.48 75.48">
  <defs>
    <style>
      .cls-1 {
        fill: #ff9100;
      }
    </style>
  </defs>
  <g id="Layer_1-2" data-name="Layer 1">
    <path class="cls-1" d="M46,63.27l-3-3.44-6.73-7.52c-1.39-1.53-3.47-2.21-5.49-1.81-3.34,.62-7.5-.85-11.94-5.23-6.59-6.5-11.29-16.92-7.72-20.55s14.07,.93,20.65,7.42c4.45,4.39,6,8.53,5.41,11.88-.39,2.01,.3,4.08,1.82,5.46l7.32,6.37,3.94,3.42,18,16.21h5.08c1.18,0,2.14-.96,2.14-2.14V20.2C75.48,9.04,66.44,0,55.28,0H17.38l11.62,12.56,4,4.25,6,6.35c.86,.92,1.97,1.56,3.2,1.84l5.66,1.16c1.59,.33,3.03,1.19,4.07,2.44l14.9,17.87c.36,.4,.33,1.02-.06,1.39l-.34,.33c-8.12-8.19-14.43-14.95-14.77-14.64s5.49,7.63,13.61,15.79l-.91,.9c-8.13-8.14-14.94-14.45-15.26-14.13s6,7.14,14.09,15.3l-.8,.8c-8.15-8.13-15.54-13.86-15.86-13.54s6.56,6.57,14.69,14.72l-.37,.37c-.28,.26-.72,.26-1,0l-18-15.19c-1.23-1.03-2.08-2.43-2.41-4l-1.12-5.5c-.26-1.35-.96-2.57-2-3.47l-6.72-5.7-4-3.38L6.75,0H2.14C.96,0,0,.96,0,2.14H0V55.28c0,11.16,9.04,20.2,20.2,20.2H57.29l-11.29-12.21Z"/>
  </g>
</svg>